<svg id="Layer_1" data-name="Layer 1" xmlns="http://www.w3.org/2000/svg" xmlns:xlink="http://www.w3.org/1999/xlink" viewBox="0 0 30 30"><defs><linearGradient id="linear-gradient" x1="3700.25" y1="5719.14" x2="3920.31" y2="5719.14" gradientTransform="translate(-504.43 -764.65) scale(0.14)" gradientUnits="userSpaceOnUse"><stop offset="0" stop-color="#2e87a1"/><stop offset="1" stop-color="#4a6997"/></linearGradient></defs><rect width="30" height="30" rx="15" transform="translate(30 30) rotate(180)" style="fill:url(#linear-gradient)"/><path d="M2,16.24c0-.12,0-.2,0-.31a.5.5,0,0,1,.68-.1c.87.4,1.74.79,2.61,1.2A.63.63,0,0,0,6,17L23.71,5.62c.36-.23.71-.44,1.08-.66l.37,0c.75.3.92.71.57,1.45Q22,14.48,18.27,22.54c-.4.87-1,.85-2.08.11a13.27,13.27,0,0,0-4.4-1.95,5.78,5.78,0,0,1-.65-.25c-.22-.11-.35-.26-.23-.51a.35.35,0,0,1,.53-.14L14.09,21c1,.45,2,.9,3,1.37.31.14.44.1.57-.22l5.27-11.4c.71-1.53,1.43-3.08,2.14-4.63.06-.12.21-.28,0-.39s-.25.06-.36.12l-13.1,8.43L6.72,17.43a.44.44,0,0,0-.26.5c0,.36.07.72.1,1.08s-.19.5-.55.4-.7-.37-.66-.84a1,1,0,0,0-.77-1.11c-.74-.26-1.44-.63-2.14-.95a1.23,1.23,0,0,1-.4-.27Z" style="fill:#e6efee"/><path d="M9.62,22c-.06-.73-.12-1.46-.2-2.19a1,1,0,0,1,.41-1q5.61-4.66,11.22-9.29a1.27,1.27,0,0,1,.12-.1.35.35,0,0,1,.53,0c.18.2.09.38-.1.54l-1.48,1.24-9.74,8a.65.65,0,0,0-.25.61c.14,1.35.25,2.72.38,4.08,0,.11,0,.27.12.32s.22-.09.3-.17c.53-.59,1.06-1.19,1.58-1.79l.12-.14a.37.37,0,0,1,.54-.06.36.36,0,0,1,0,.54c-.63.72-1.26,1.44-1.91,2.14a.85.85,0,0,1-1.43-.57c-.09-.76-.16-1.51-.23-2.26Z" style="fill:#e6efee"/><path d="M4.49,19.92c0,.48.1.94.13,1.41a.45.45,0,0,0,.32.45l3.79,1.75c.16.08.33.13.35.34s-.25.49-.59.34L6.05,23.08c-.51-.23-1-.48-1.52-.7a1,1,0,0,1-.62-.89q-.12-1.44-.27-2.88c0-.27,0-.54.3-.58s.4.24.42.52C4.39,19,4.45,19.47,4.49,19.92Z" style="fill:#e6efee"/></svg>